<?xml version="1.0" encoding="UTF-8"?>
<svg xmlns="http://www.w3.org/2000/svg" xmlns:xlink="http://www.w3.org/1999/xlink" width="315pt" height="110pt" viewBox="0 0 315 110" version="1.1">
<g id="surface1">
<path style="fill-rule:nonzero;fill:rgb(69.803922%,85.098039%,100%);fill-opacity:1;stroke-width:1;stroke-linecap:round;stroke-linejoin:round;stroke:rgb(0%,0%,0%);stroke-opacity:1;stroke-miterlimit:10;" d="M 107.015625 77.734375 C 111.996875 82.715625 111.996875 90.784375 107.015625 95.765625 C 102.034375 100.746875 93.965625 100.746875 88.984375 95.765625 C 84.003125 90.784375 84.003125 82.715625 88.984375 77.734375 C 93.965625 72.753125 102.034375 72.753125 107.015625 77.734375 " transform="matrix(1.25,0,0,1.25,-22.5,-15)"/>
<path style=" stroke:none;fill-rule:nonzero;fill:rgb(0%,0%,0%);fill-opacity:1;" d="M 98.363281 91.328125 C 98.207031 90.546875 98.070312 90.351562 97.796875 90.351562 C 97.523438 90.351562 97.152344 90.429688 96.46875 90.683594 L 96.351562 90.722656 L 96.390625 90.898438 L 96.585938 90.839844 C 96.800781 90.78125 96.9375 90.761719 97.015625 90.761719 C 97.308594 90.761719 97.386719 90.859375 97.542969 91.523438 L 97.855469 92.929688 L 96.9375 94.238281 C 96.703125 94.570312 96.488281 94.785156 96.351562 94.785156 C 96.292969 94.785156 96.175781 94.746094 96.058594 94.6875 C 95.921875 94.609375 95.804688 94.550781 95.707031 94.550781 C 95.492188 94.550781 95.316406 94.746094 95.316406 94.960938 C 95.316406 95.253906 95.53125 95.429688 95.882812 95.429688 C 96.234375 95.429688 96.46875 95.332031 96.957031 94.667969 L 97.953125 93.339844 L 98.265625 94.667969 C 98.402344 95.234375 98.578125 95.429688 98.929688 95.429688 C 99.359375 95.429688 99.652344 95.175781 100.316406 94.160156 L 100.140625 94.042969 C 100.042969 94.160156 100.003906 94.238281 99.90625 94.375 C 99.652344 94.707031 99.515625 94.824219 99.378906 94.824219 C 99.222656 94.824219 99.125 94.667969 99.046875 94.355469 L 98.675781 92.851562 C 98.617188 92.578125 98.578125 92.421875 98.578125 92.34375 C 99.085938 91.484375 99.496094 90.976562 99.691406 90.976562 C 99.964844 90.976562 100.0625 91.171875 100.277344 91.171875 C 100.492188 91.171875 100.648438 90.996094 100.648438 90.761719 C 100.648438 90.527344 100.472656 90.351562 100.199219 90.351562 C 99.710938 90.351562 99.28125 90.761719 98.5 91.953125 Z M 98.363281 91.328125 "/>
<path style=" stroke:none;fill-rule:nonzero;fill:rgb(0%,0%,0%);fill-opacity:1;" d="M 103.570312 99.0625 L 103.570312 98.945312 C 103.003906 98.945312 102.867188 98.808594 102.867188 98.496094 L 102.867188 94.023438 L 102.789062 93.984375 L 101.460938 94.667969 L 101.460938 94.785156 L 101.65625 94.707031 C 101.792969 94.648438 101.910156 94.609375 101.988281 94.609375 C 102.144531 94.609375 102.222656 94.726562 102.222656 94.980469 L 102.222656 98.359375 C 102.222656 98.769531 102.066406 98.925781 101.5 98.945312 L 101.5 99.0625 Z M 103.570312 99.0625 "/>
<path style="fill-rule:nonzero;fill:rgb(69.803922%,85.098039%,100%);fill-opacity:1;stroke-width:1;stroke-linecap:round;stroke-linejoin:round;stroke:rgb(0%,0%,0%);stroke-opacity:1;stroke-miterlimit:10;" d="M 159.890625 77.734375 C 164.871875 82.715625 164.871875 90.784375 159.890625 95.765625 C 154.909375 100.746875 146.840625 100.746875 141.859375 95.765625 C 136.878125 90.784375 136.878125 82.715625 141.859375 77.734375 C 146.840625 72.753125 154.909375 72.753125 159.890625 77.734375 " transform="matrix(1.25,0,0,1.25,-22.5,-15)"/>
<path style=" stroke:none;fill-rule:nonzero;fill:rgb(0%,0%,0%);fill-opacity:1;" d="M 164.457031 91.328125 C 164.300781 90.546875 164.164062 90.351562 163.890625 90.351562 C 163.617188 90.351562 163.246094 90.429688 162.5625 90.683594 L 162.445312 90.722656 L 162.484375 90.898438 L 162.679688 90.839844 C 162.894531 90.78125 163.03125 90.761719 163.109375 90.761719 C 163.402344 90.761719 163.480469 90.859375 163.636719 91.523438 L 163.949219 92.929688 L 163.03125 94.238281 C 162.796875 94.570312 162.582031 94.785156 162.445312 94.785156 C 162.386719 94.785156 162.269531 94.746094 162.152344 94.6875 C 162.015625 94.609375 161.898438 94.550781 161.800781 94.550781 C 161.585938 94.550781 161.410156 94.746094 161.410156 94.960938 C 161.410156 95.253906 161.625 95.429688 161.976562 95.429688 C 162.328125 95.429688 162.5625 95.332031 163.050781 94.667969 L 164.046875 93.339844 L 164.359375 94.667969 C 164.496094 95.234375 164.671875 95.429688 165.023438 95.429688 C 165.453125 95.429688 165.746094 95.175781 166.410156 94.160156 L 166.234375 94.042969 C 166.136719 94.160156 166.097656 94.238281 166 94.375 C 165.746094 94.707031 165.609375 94.824219 165.472656 94.824219 C 165.316406 94.824219 165.21875 94.667969 165.140625 94.355469 L 164.769531 92.851562 C 164.710938 92.578125 164.671875 92.421875 164.671875 92.34375 C 165.179688 91.484375 165.589844 90.976562 165.785156 90.976562 C 166.058594 90.976562 166.15625 91.171875 166.371094 91.171875 C 166.585938 91.171875 166.742188 90.996094 166.742188 90.761719 C 166.742188 90.527344 166.566406 90.351562 166.292969 90.351562 C 165.804688 90.351562 165.375 90.761719 164.59375 91.953125 Z M 164.457031 91.328125 "/>
<path style=" stroke:none;fill-rule:nonzero;fill:rgb(0%,0%,0%);fill-opacity:1;" d="M 170.269531 98.027344 L 170.171875 97.988281 C 169.917969 98.417969 169.761719 98.496094 169.449219 98.496094 L 167.691406 98.496094 L 168.921875 97.167969 C 169.585938 96.464844 169.878906 95.898438 169.878906 95.3125 C 169.878906 94.570312 169.351562 93.984375 168.492188 93.984375 C 167.574219 93.984375 167.105469 94.609375 166.949219 95.488281 L 167.105469 95.527344 C 167.398438 94.785156 167.652344 94.550781 168.199219 94.550781 C 168.84375 94.550781 169.234375 94.921875 169.234375 95.605469 C 169.234375 96.25 168.980469 96.816406 168.257812 97.558594 L 166.929688 98.964844 L 166.929688 99.0625 L 169.859375 99.0625 Z M 170.269531 98.027344 "/>
<path style="fill-rule:nonzero;fill:rgb(40%,74.901961%,100%);fill-opacity:1;stroke-width:1;stroke-linecap:round;stroke-linejoin:round;stroke:rgb(0%,0%,0%);stroke-opacity:1;stroke-miterlimit:10;" d="M 140.015625 16.734375 C 144.996875 21.715625 144.996875 29.784375 140.015625 34.765625 C 135.034375 39.746875 126.965625 39.746875 121.984375 34.765625 C 117.003125 29.784375 117.003125 21.715625 121.984375 16.734375 C 126.965625 11.753125 135.034375 11.753125 140.015625 16.734375 " transform="matrix(1.25,0,0,1.25,-22.5,-15)"/>
<path style=" stroke:none;fill-rule:nonzero;fill:rgb(0%,0%,0%);fill-opacity:1;" d="M 141.835938 15.683594 C 141.835938 14.6875 141.152344 14.101562 140.234375 14.101562 C 139.785156 14.101562 139.335938 14.199219 138.886719 14.433594 C 137.714844 15.078125 136.875 16.367188 136.875 17.617188 C 136.875 18.59375 137.460938 19.179688 138.515625 19.179688 C 139.257812 19.179688 139.980469 18.90625 140.644531 18.261719 C 141.386719 17.519531 141.835938 16.523438 141.835938 15.683594 Z M 140.878906 15.390625 C 140.878906 16.25 140.566406 17.304688 140.058594 18.007812 C 139.609375 18.632812 139.179688 18.945312 138.691406 18.945312 C 138.164062 18.945312 137.8125 18.59375 137.8125 17.929688 C 137.8125 17.03125 138.125 16.152344 138.652344 15.351562 C 139.101562 14.6875 139.589844 14.335938 140.078125 14.335938 C 140.566406 14.335938 140.878906 14.707031 140.878906 15.390625 Z M 140.878906 15.390625 "/>
<path style=" stroke:none;fill-rule:nonzero;fill:rgb(0%,0%,0%);fill-opacity:1;" d="M 145.136719 22.8125 L 145.136719 22.695312 C 144.570312 22.695312 144.433594 22.558594 144.433594 22.246094 L 144.433594 17.773438 L 144.355469 17.734375 L 143.027344 18.417969 L 143.027344 18.535156 L 143.222656 18.457031 C 143.359375 18.398438 143.476562 18.359375 143.554688 18.359375 C 143.710938 18.359375 143.789062 18.476562 143.789062 18.730469 L 143.789062 22.109375 C 143.789062 22.519531 143.632812 22.675781 143.066406 22.695312 L 143.066406 22.8125 Z M 145.136719 22.8125 "/>
<path style=" stroke:none;fill-rule:nonzero;fill:rgb(0%,0%,0%);fill-opacity:1;" d="M 9.453125 90.820312 L 9.453125 92.480469 L 8.339844 92.480469 C 8.613281 91.757812 8.886719 90.9375 9.121094 90.019531 L 11.289062 90.019531 L 11.289062 89.257812 L 9.316406 89.257812 C 9.414062 88.808594 9.511719 88.320312 9.628906 87.8125 L 8.886719 87.65625 C 8.769531 88.203125 8.671875 88.75 8.554688 89.257812 L 7.441406 89.257812 L 7.441406 90.019531 L 8.378906 90.019531 C 8.125 91.015625 7.851562 91.875 7.519531 92.539062 L 7.695312 93.222656 L 9.453125 93.222656 L 9.453125 94.902344 C 8.789062 95.019531 8.105469 95.136719 7.363281 95.214844 L 7.460938 96.015625 C 8.144531 95.898438 8.808594 95.800781 9.453125 95.664062 L 9.453125 98.007812 L 10.195312 98.007812 L 10.195312 95.507812 L 11.269531 95.234375 L 11.269531 94.472656 C 10.9375 94.550781 10.585938 94.648438 10.195312 94.746094 L 10.195312 93.222656 L 11.230469 93.222656 L 11.230469 92.480469 L 10.195312 92.480469 L 10.195312 90.820312 Z M 12.773438 90.234375 L 12.773438 90.898438 L 15.996094 90.898438 L 15.996094 90.234375 L 12.773438 90.234375 C 13.339844 89.6875 13.886719 89.082031 14.414062 88.4375 C 15.273438 89.53125 16.230469 90.46875 17.285156 91.230469 L 17.714844 90.605469 C 16.699219 89.882812 15.703125 88.925781 14.707031 87.714844 L 14.140625 87.714844 C 13.222656 88.828125 12.1875 89.824219 11.035156 90.664062 L 11.484375 91.347656 C 11.914062 90.996094 12.34375 90.625 12.773438 90.234375 Z M 13.554688 97.929688 C 14.101562 97.929688 14.394531 97.636719 14.394531 97.050781 L 14.394531 91.796875 L 11.738281 91.796875 L 11.738281 98.007812 L 12.441406 98.007812 L 12.441406 95.898438 L 13.710938 95.898438 L 13.710938 96.914062 C 13.710938 97.148438 13.574219 97.285156 13.339844 97.285156 L 12.832031 97.265625 L 13.007812 97.929688 Z M 12.441406 95.273438 L 12.441406 94.199219 L 13.710938 94.199219 L 13.710938 95.273438 Z M 12.441406 93.574219 L 12.441406 92.460938 L 13.710938 92.460938 L 13.710938 93.574219 Z M 15.058594 92.109375 L 15.058594 96.152344 L 15.703125 96.152344 L 15.703125 92.109375 Z M 16.289062 97.949219 C 16.835938 97.949219 17.109375 97.617188 17.109375 96.972656 L 17.109375 91.601562 L 16.40625 91.601562 L 16.40625 96.796875 C 16.40625 97.109375 16.289062 97.285156 16.035156 97.285156 C 15.761719 97.285156 15.46875 97.265625 15.175781 97.226562 L 15.332031 97.949219 Z M 16.289062 97.949219 "/>
<path style=" stroke:none;fill-rule:nonzero;fill:rgb(0%,0%,0%);fill-opacity:1;" d="M 23.261719 90.292969 C 22.539062 93.28125 20.976562 95.585938 18.554688 97.148438 L 19.042969 97.851562 C 21.40625 96.308594 22.96875 94.101562 23.710938 91.230469 C 23.769531 91.367188 23.808594 91.523438 23.886719 91.71875 C 25.039062 94.6875 26.523438 96.738281 28.359375 97.832031 L 28.867188 97.1875 C 27.070312 96.074219 25.664062 94.160156 24.609375 91.484375 C 23.925781 89.648438 23.066406 88.378906 22.070312 87.675781 L 21.40625 88.105469 C 22.109375 88.632812 22.734375 89.355469 23.261719 90.292969 Z M 23.261719 90.292969 "/>
<path style=" stroke:none;fill-rule:nonzero;fill:rgb(0%,0%,0%);fill-opacity:1;" d="M 33.027344 91.992188 L 33.027344 92.714844 L 39.121094 92.714844 L 39.121094 91.992188 Z M 32.226562 93.828125 L 32.226562 94.570312 L 34.6875 94.570312 C 33.90625 95.839844 33.242188 96.621094 32.753906 96.914062 C 32.695312 96.933594 32.65625 96.972656 32.578125 96.992188 L 32.753906 97.675781 C 34.882812 97.539062 36.835938 97.34375 38.613281 97.109375 C 38.847656 97.382812 39.042969 97.675781 39.238281 97.96875 L 39.882812 97.519531 C 39.394531 96.796875 38.671875 95.9375 37.753906 94.960938 L 37.148438 95.332031 C 37.480469 95.722656 37.8125 96.09375 38.125 96.464844 C 36.679688 96.679688 35.214844 96.835938 33.730469 96.933594 C 34.257812 96.464844 34.863281 95.664062 35.546875 94.570312 L 39.863281 94.570312 L 39.863281 93.828125 Z M 38.496094 88.886719 L 38.496094 90.195312 L 31.875 90.195312 L 31.875 88.886719 Z M 31.875 90.917969 L 39.277344 90.917969 L 39.277344 88.125 L 31.09375 88.125 L 31.09375 91.855469 C 31.074219 94.121094 30.683594 95.957031 29.902344 97.382812 L 30.488281 97.929688 C 31.40625 96.230469 31.875 94.199219 31.875 91.855469 Z M 31.875 90.917969 "/>
<path style=" stroke:none;fill-rule:nonzero;fill:rgb(0%,0%,0%);fill-opacity:1;" d="M 9.453125 15.507812 L 9.453125 17.167969 L 8.339844 17.167969 C 8.613281 16.445312 8.886719 15.625 9.121094 14.707031 L 11.289062 14.707031 L 11.289062 13.945312 L 9.316406 13.945312 C 9.414062 13.496094 9.511719 13.007812 9.628906 12.5 L 8.886719 12.34375 C 8.769531 12.890625 8.671875 13.4375 8.554688 13.945312 L 7.441406 13.945312 L 7.441406 14.707031 L 8.378906 14.707031 C 8.125 15.703125 7.851562 16.5625 7.519531 17.226562 L 7.695312 17.910156 L 9.453125 17.910156 L 9.453125 19.589844 C 8.789062 19.707031 8.105469 19.824219 7.363281 19.902344 L 7.460938 20.703125 C 8.144531 20.585938 8.808594 20.488281 9.453125 20.351562 L 9.453125 22.695312 L 10.195312 22.695312 L 10.195312 20.195312 L 11.269531 19.921875 L 11.269531 19.160156 C 10.9375 19.238281 10.585938 19.335938 10.195312 19.433594 L 10.195312 17.910156 L 11.230469 17.910156 L 11.230469 17.167969 L 10.195312 17.167969 L 10.195312 15.507812 Z M 12.773438 14.921875 L 12.773438 15.585938 L 15.996094 15.585938 L 15.996094 14.921875 L 12.773438 14.921875 C 13.339844 14.375 13.886719 13.769531 14.414062 13.125 C 15.273438 14.21875 16.230469 15.15625 17.285156 15.917969 L 17.714844 15.292969 C 16.699219 14.570312 15.703125 13.613281 14.707031 12.402344 L 14.140625 12.402344 C 13.222656 13.515625 12.1875 14.511719 11.035156 15.351562 L 11.484375 16.035156 C 11.914062 15.683594 12.34375 15.3125 12.773438 14.921875 Z M 13.554688 22.617188 C 14.101562 22.617188 14.394531 22.324219 14.394531 21.738281 L 14.394531 16.484375 L 11.738281 16.484375 L 11.738281 22.695312 L 12.441406 22.695312 L 12.441406 20.585938 L 13.710938 20.585938 L 13.710938 21.601562 C 13.710938 21.835938 13.574219 21.972656 13.339844 21.972656 L 12.832031 21.953125 L 13.007812 22.617188 Z M 12.441406 19.960938 L 12.441406 18.886719 L 13.710938 18.886719 L 13.710938 19.960938 Z M 12.441406 18.261719 L 12.441406 17.148438 L 13.710938 17.148438 L 13.710938 18.261719 Z M 15.058594 16.796875 L 15.058594 20.839844 L 15.703125 20.839844 L 15.703125 16.796875 Z M 16.289062 22.636719 C 16.835938 22.636719 17.109375 22.304688 17.109375 21.660156 L 17.109375 16.289062 L 16.40625 16.289062 L 16.40625 21.484375 C 16.40625 21.796875 16.289062 21.972656 16.035156 21.972656 C 15.761719 21.972656 15.46875 21.953125 15.175781 21.914062 L 15.332031 22.636719 Z M 16.289062 22.636719 "/>
<path style=" stroke:none;fill-rule:nonzero;fill:rgb(0%,0%,0%);fill-opacity:1;" d="M 26.796875 16.289062 L 24.160156 16.289062 L 24.160156 12.363281 L 23.339844 12.363281 L 23.339844 16.289062 L 20.703125 16.289062 L 20.703125 13.222656 L 19.882812 13.222656 L 19.882812 17.070312 L 23.339844 17.070312 L 23.339844 21.210938 L 20.15625 21.210938 L 20.15625 18.125 L 19.335938 18.125 L 19.335938 22.617188 L 20.15625 22.617188 L 20.15625 21.972656 L 27.34375 21.972656 L 27.34375 22.617188 L 28.164062 22.617188 L 28.164062 18.125 L 27.34375 18.125 L 27.34375 21.210938 L 24.160156 21.210938 L 24.160156 17.070312 L 27.617188 17.070312 L 27.617188 13.222656 L 26.796875 13.222656 Z M 26.796875 16.289062 "/>
<path style=" stroke:none;fill-rule:nonzero;fill:rgb(0%,0%,0%);fill-opacity:1;" d="M 33.027344 16.679688 L 33.027344 17.402344 L 39.121094 17.402344 L 39.121094 16.679688 Z M 32.226562 18.515625 L 32.226562 19.257812 L 34.6875 19.257812 C 33.90625 20.527344 33.242188 21.308594 32.753906 21.601562 C 32.695312 21.621094 32.65625 21.660156 32.578125 21.679688 L 32.753906 22.363281 C 34.882812 22.226562 36.835938 22.03125 38.613281 21.796875 C 38.847656 22.070312 39.042969 22.363281 39.238281 22.65625 L 39.882812 22.207031 C 39.394531 21.484375 38.671875 20.625 37.753906 19.648438 L 37.148438 20.019531 C 37.480469 20.410156 37.8125 20.78125 38.125 21.152344 C 36.679688 21.367188 35.214844 21.523438 33.730469 21.621094 C 34.257812 21.152344 34.863281 20.351562 35.546875 19.257812 L 39.863281 19.257812 L 39.863281 18.515625 Z M 38.496094 13.574219 L 38.496094 14.882812 L 31.875 14.882812 L 31.875 13.574219 Z M 31.875 15.605469 L 39.277344 15.605469 L 39.277344 12.8125 L 31.09375 12.8125 L 31.09375 16.542969 C 31.074219 18.808594 30.683594 20.644531 29.902344 22.070312 L 30.488281 22.617188 C 31.40625 20.917969 31.875 18.886719 31.875 16.542969 Z M 31.875 15.605469 "/>
<path style="fill-rule:nonzero;fill:rgb(69.803922%,85.098039%,100%);fill-opacity:1;stroke-width:1;stroke-linecap:round;stroke-linejoin:round;stroke:rgb(0%,0%,0%);stroke-opacity:1;stroke-miterlimit:10;" d="M 212.765625 77.734375 C 217.746875 82.715625 217.746875 90.784375 212.765625 95.765625 C 207.784375 100.746875 199.715625 100.746875 194.734375 95.765625 C 189.753125 90.784375 189.753125 82.715625 194.734375 77.734375 C 199.715625 72.753125 207.784375 72.753125 212.765625 77.734375 " transform="matrix(1.25,0,0,1.25,-22.5,-15)"/>
<path style=" stroke:none;fill-rule:nonzero;fill:rgb(0%,0%,0%);fill-opacity:1;" d="M 230.550781 91.328125 C 230.394531 90.546875 230.257812 90.351562 229.984375 90.351562 C 229.710938 90.351562 229.339844 90.429688 228.65625 90.683594 L 228.539062 90.722656 L 228.578125 90.898438 L 228.773438 90.839844 C 228.988281 90.78125 229.125 90.761719 229.203125 90.761719 C 229.496094 90.761719 229.574219 90.859375 229.730469 91.523438 L 230.042969 92.929688 L 229.125 94.238281 C 228.890625 94.570312 228.675781 94.785156 228.539062 94.785156 C 228.480469 94.785156 228.363281 94.746094 228.246094 94.6875 C 228.109375 94.609375 227.992188 94.550781 227.894531 94.550781 C 227.679688 94.550781 227.503906 94.746094 227.503906 94.960938 C 227.503906 95.253906 227.71875 95.429688 228.070312 95.429688 C 228.421875 95.429688 228.65625 95.332031 229.144531 94.667969 L 230.140625 93.339844 L 230.453125 94.667969 C 230.589844 95.234375 230.765625 95.429688 231.117188 95.429688 C 231.546875 95.429688 231.839844 95.175781 232.503906 94.160156 L 232.328125 94.042969 C 232.230469 94.160156 232.191406 94.238281 232.09375 94.375 C 231.839844 94.707031 231.703125 94.824219 231.566406 94.824219 C 231.410156 94.824219 231.3125 94.667969 231.234375 94.355469 L 230.863281 92.851562 C 230.804688 92.578125 230.765625 92.421875 230.765625 92.34375 C 231.273438 91.484375 231.683594 90.976562 231.878906 90.976562 C 232.152344 90.976562 232.25 91.171875 232.464844 91.171875 C 232.679688 91.171875 232.835938 90.996094 232.835938 90.761719 C 232.835938 90.527344 232.660156 90.351562 232.386719 90.351562 C 231.898438 90.351562 231.46875 90.761719 230.6875 91.953125 Z M 230.550781 91.328125 "/>
<path style=" stroke:none;fill-rule:nonzero;fill:rgb(0%,0%,0%);fill-opacity:1;" d="M 233.257812 95.234375 C 233.570312 94.6875 233.921875 94.433594 234.390625 94.433594 C 234.878906 94.433594 235.191406 94.707031 235.191406 95.214844 C 235.191406 95.664062 234.957031 95.996094 234.585938 96.210938 C 234.429688 96.308594 234.234375 96.386719 233.960938 96.484375 L 233.960938 96.582031 C 234.390625 96.582031 234.546875 96.601562 234.722656 96.660156 C 235.230469 96.816406 235.503906 97.1875 235.503906 97.753906 C 235.503906 98.378906 235.074219 98.90625 234.527344 98.90625 C 234.3125 98.90625 234.15625 98.867188 233.882812 98.671875 C 233.667969 98.515625 233.550781 98.476562 233.414062 98.476562 C 233.257812 98.476562 233.121094 98.574219 233.121094 98.730469 C 233.121094 99.003906 233.414062 99.160156 233.960938 99.160156 C 234.625 99.160156 235.328125 98.945312 235.699219 98.476562 C 235.914062 98.183594 236.050781 97.8125 236.050781 97.421875 C 236.050781 97.03125 235.914062 96.679688 235.71875 96.445312 C 235.5625 96.289062 235.425781 96.191406 235.09375 96.054688 C 235.582031 95.761719 235.777344 95.371094 235.777344 95.019531 C 235.777344 94.414062 235.308594 93.984375 234.625 93.984375 C 233.84375 93.984375 233.355469 94.492188 233.140625 95.214844 Z M 233.257812 95.234375 "/>
<path style="fill-rule:nonzero;fill:rgb(69.803922%,85.098039%,100%);fill-opacity:1;stroke-width:1;stroke-linecap:round;stroke-linejoin:round;stroke:rgb(0%,0%,0%);stroke-opacity:1;stroke-miterlimit:10;" d="M 265.640625 76.984375 C 270.621875 81.965625 270.621875 90.034375 265.640625 95.015625 C 260.659375 99.996875 252.590625 99.996875 247.609375 95.015625 C 242.628125 90.034375 242.628125 81.965625 247.609375 76.984375 C 252.590625 72.003125 260.659375 72.003125 265.640625 76.984375 " transform="matrix(1.25,0,0,1.25,-22.5,-15)"/>
<path style=" stroke:none;fill-rule:nonzero;fill:rgb(0%,0%,0%);fill-opacity:1;" d="M 296.644531 90.390625 C 296.488281 89.609375 296.351562 89.414062 296.078125 89.414062 C 295.804688 89.414062 295.433594 89.492188 294.75 89.746094 L 294.632812 89.785156 L 294.671875 89.960938 L 294.867188 89.902344 C 295.082031 89.84375 295.21875 89.824219 295.296875 89.824219 C 295.589844 89.824219 295.667969 89.921875 295.824219 90.585938 L 296.136719 91.992188 L 295.21875 93.300781 C 294.984375 93.632812 294.769531 93.847656 294.632812 93.847656 C 294.574219 93.847656 294.457031 93.808594 294.339844 93.75 C 294.203125 93.671875 294.085938 93.613281 293.988281 93.613281 C 293.773438 93.613281 293.597656 93.808594 293.597656 94.023438 C 293.597656 94.316406 293.8125 94.492188 294.164062 94.492188 C 294.515625 94.492188 294.75 94.394531 295.238281 93.730469 L 296.234375 92.402344 L 296.546875 93.730469 C 296.683594 94.296875 296.859375 94.492188 297.210938 94.492188 C 297.640625 94.492188 297.933594 94.238281 298.597656 93.222656 L 298.421875 93.105469 C 298.324219 93.222656 298.285156 93.300781 298.1875 93.4375 C 297.933594 93.769531 297.796875 93.886719 297.660156 93.886719 C 297.503906 93.886719 297.40625 93.730469 297.328125 93.417969 L 296.957031 91.914062 C 296.898438 91.640625 296.859375 91.484375 296.859375 91.40625 C 297.367188 90.546875 297.777344 90.039062 297.972656 90.039062 C 298.246094 90.039062 298.34375 90.234375 298.558594 90.234375 C 298.773438 90.234375 298.929688 90.058594 298.929688 89.824219 C 298.929688 89.589844 298.753906 89.414062 298.480469 89.414062 C 297.992188 89.414062 297.5625 89.824219 296.78125 91.015625 Z M 296.644531 90.390625 "/>
<path style=" stroke:none;fill-rule:nonzero;fill:rgb(0%,0%,0%);fill-opacity:1;" d="M 302.457031 96.875 L 302.457031 96.386719 L 301.675781 96.386719 L 301.675781 93.046875 L 301.34375 93.046875 L 299 96.386719 L 299 96.875 L 301.089844 96.875 L 301.089844 98.125 L 301.675781 98.125 L 301.675781 96.875 Z M 301.089844 96.386719 L 299.292969 96.386719 L 301.089844 93.828125 Z M 301.089844 96.386719 "/>
<path style="fill-rule:nonzero;fill:rgb(40%,74.901961%,100%);fill-opacity:1;stroke-width:1;stroke-linecap:round;stroke-linejoin:round;stroke:rgb(0%,0%,0%);stroke-opacity:1;stroke-miterlimit:10;" d="M 231.265625 16.734375 C 236.246875 21.715625 236.246875 29.784375 231.265625 34.765625 C 226.284375 39.746875 218.215625 39.746875 213.234375 34.765625 C 208.253125 29.784375 208.253125 21.715625 213.234375 16.734375 C 218.215625 11.753125 226.284375 11.753125 231.265625 16.734375 " transform="matrix(1.25,0,0,1.25,-22.5,-15)"/>
<path style=" stroke:none;fill-rule:nonzero;fill:rgb(0%,0%,0%);fill-opacity:1;" d="M 255.898438 15.683594 C 255.898438 14.6875 255.214844 14.101562 254.296875 14.101562 C 253.847656 14.101562 253.398438 14.199219 252.949219 14.433594 C 251.777344 15.078125 250.9375 16.367188 250.9375 17.617188 C 250.9375 18.59375 251.523438 19.179688 252.578125 19.179688 C 253.320312 19.179688 254.042969 18.90625 254.707031 18.261719 C 255.449219 17.519531 255.898438 16.523438 255.898438 15.683594 Z M 254.941406 15.390625 C 254.941406 16.25 254.628906 17.304688 254.121094 18.007812 C 253.671875 18.632812 253.242188 18.945312 252.753906 18.945312 C 252.226562 18.945312 251.875 18.59375 251.875 17.929688 C 251.875 17.03125 252.1875 16.152344 252.714844 15.351562 C 253.164062 14.6875 253.652344 14.335938 254.140625 14.335938 C 254.628906 14.335938 254.941406 14.707031 254.941406 15.390625 Z M 254.941406 15.390625 "/>
<path style=" stroke:none;fill-rule:nonzero;fill:rgb(0%,0%,0%);fill-opacity:1;" d="M 256.699219 18.984375 C 257.011719 18.4375 257.363281 18.183594 257.832031 18.183594 C 258.320312 18.183594 258.632812 18.457031 258.632812 18.964844 C 258.632812 19.414062 258.398438 19.746094 258.027344 19.960938 C 257.871094 20.058594 257.675781 20.136719 257.402344 20.234375 L 257.402344 20.332031 C 257.832031 20.332031 257.988281 20.351562 258.164062 20.410156 C 258.671875 20.566406 258.945312 20.9375 258.945312 21.503906 C 258.945312 22.128906 258.515625 22.65625 257.96875 22.65625 C 257.753906 22.65625 257.597656 22.617188 257.324219 22.421875 C 257.109375 22.265625 256.992188 22.226562 256.855469 22.226562 C 256.699219 22.226562 256.5625 22.324219 256.5625 22.480469 C 256.5625 22.753906 256.855469 22.910156 257.402344 22.910156 C 258.066406 22.910156 258.769531 22.695312 259.140625 22.226562 C 259.355469 21.933594 259.492188 21.5625 259.492188 21.171875 C 259.492188 20.78125 259.355469 20.429688 259.160156 20.195312 C 259.003906 20.039062 258.867188 19.941406 258.535156 19.804688 C 259.023438 19.511719 259.21875 19.121094 259.21875 18.769531 C 259.21875 18.164062 258.75 17.734375 258.066406 17.734375 C 257.285156 17.734375 256.796875 18.242188 256.582031 18.964844 Z M 256.699219 18.984375 "/>
<path style="fill-rule:nonzero;fill:rgb(40%,74.901961%,100%);fill-opacity:1;stroke-width:1;stroke-linecap:round;stroke-linejoin:round;stroke:rgb(0%,0%,0%);stroke-opacity:1;stroke-miterlimit:10;" d="M 185.640625 16.734375 C 190.621875 21.715625 190.621875 29.784375 185.640625 34.765625 C 180.659375 39.746875 172.590625 39.746875 167.609375 34.765625 C 162.628125 29.784375 162.628125 21.715625 167.609375 16.734375 C 172.590625 11.753125 180.659375 11.753125 185.640625 16.734375 " transform="matrix(1.25,0,0,1.25,-22.5,-15)"/>
<path style=" stroke:none;fill-rule:nonzero;fill:rgb(0%,0%,0%);fill-opacity:1;" d="M 198.867188 15.683594 C 198.867188 14.6875 198.183594 14.101562 197.265625 14.101562 C 196.816406 14.101562 196.367188 14.199219 195.917969 14.433594 C 194.746094 15.078125 193.90625 16.367188 193.90625 17.617188 C 193.90625 18.59375 194.492188 19.179688 195.546875 19.179688 C 196.289062 19.179688 197.011719 18.90625 197.675781 18.261719 C 198.417969 17.519531 198.867188 16.523438 198.867188 15.683594 Z M 197.910156 15.390625 C 197.910156 16.25 197.597656 17.304688 197.089844 18.007812 C 196.640625 18.632812 196.210938 18.945312 195.722656 18.945312 C 195.195312 18.945312 194.84375 18.59375 194.84375 17.929688 C 194.84375 17.03125 195.15625 16.152344 195.683594 15.351562 C 196.132812 14.6875 196.621094 14.335938 197.109375 14.335938 C 197.597656 14.335938 197.910156 14.707031 197.910156 15.390625 Z M 197.910156 15.390625 "/>
<path style=" stroke:none;fill-rule:nonzero;fill:rgb(0%,0%,0%);fill-opacity:1;" d="M 202.773438 21.777344 L 202.675781 21.738281 C 202.421875 22.167969 202.265625 22.246094 201.953125 22.246094 L 200.195312 22.246094 L 201.425781 20.917969 C 202.089844 20.214844 202.382812 19.648438 202.382812 19.0625 C 202.382812 18.320312 201.855469 17.734375 200.996094 17.734375 C 200.078125 17.734375 199.609375 18.359375 199.453125 19.238281 L 199.609375 19.277344 C 199.902344 18.535156 200.15625 18.300781 200.703125 18.300781 C 201.347656 18.300781 201.738281 18.671875 201.738281 19.355469 C 201.738281 20 201.484375 20.566406 200.761719 21.308594 L 199.433594 22.714844 L 199.433594 22.8125 L 202.363281 22.8125 Z M 202.773438 21.777344 "/>
<path style="fill:none;stroke-width:1;stroke-linecap:round;stroke-linejoin:round;stroke:rgb(0%,0%,0%);stroke-opacity:1;stroke-miterlimit:10;" d="M 104.065625 75.53125 L 122.125 42.15625 " transform="matrix(1.25,0,0,1.25,-22.5,-15)"/>
<path style="fill:none;stroke-width:1;stroke-linecap:butt;stroke-linejoin:miter;stroke:rgb(0%,0%,0%);stroke-opacity:1;stroke-miterlimit:10;" d="M 124.028125 38.6375 L 122.125 42.15625 M 120.80625 41.440625 L 124.028125 38.6375 L 123.44375 42.871875 " transform="matrix(1.25,0,0,1.25,-22.5,-15)"/>
<path style="fill:none;stroke-width:1;stroke-linecap:round;stroke-linejoin:round;stroke:rgb(0%,0%,0%);stroke-opacity:1;stroke-miterlimit:10;" d="M 108.075 78.934375 L 161.890625 37.184375 " transform="matrix(1.25,0,0,1.25,-22.5,-15)"/>
<path style="fill:none;stroke-width:1;stroke-linecap:butt;stroke-linejoin:miter;stroke:rgb(0%,0%,0%);stroke-opacity:1;stroke-miterlimit:10;" d="M 165.05 34.73125 L 161.890625 37.184375 M 160.96875 35.996875 L 165.05 34.73125 L 162.809375 38.36875 " transform="matrix(1.25,0,0,1.25,-22.5,-15)"/>
<path style="fill:none;stroke-width:1;stroke-linecap:round;stroke-linejoin:round;stroke:rgb(0%,0%,0%);stroke-opacity:1;stroke-miterlimit:10;" d="M 109.45 81.128125 L 205.503125 33.96875 " transform="matrix(1.25,0,0,1.25,-22.5,-15)"/>
<path style="fill:none;stroke-width:1;stroke-linecap:butt;stroke-linejoin:miter;stroke:rgb(0%,0%,0%);stroke-opacity:1;stroke-miterlimit:10;" d="M 209.096875 32.20625 L 205.503125 33.96875 M 204.84375 32.625 L 209.096875 32.20625 L 206.16875 35.315625 " transform="matrix(1.25,0,0,1.25,-22.5,-15)"/>
<path style="fill:none;stroke-width:1;stroke-linecap:round;stroke-linejoin:round;stroke:rgb(0%,0%,0%);stroke-opacity:1;stroke-miterlimit:10;" d="M 146.925 74.625 L 136.778125 43.484375 " transform="matrix(1.25,0,0,1.25,-22.5,-15)"/>
<path style="fill:none;stroke-width:1;stroke-linecap:butt;stroke-linejoin:miter;stroke:rgb(0%,0%,0%);stroke-opacity:1;stroke-miterlimit:10;" d="M 135.5375 39.684375 L 136.778125 43.484375 M 135.35 43.95 L 135.5375 39.684375 L 138.203125 43.01875 " transform="matrix(1.25,0,0,1.25,-22.5,-15)"/>
<path style="fill:none;stroke-width:1;stroke-linecap:round;stroke-linejoin:round;stroke:rgb(0%,0%,0%);stroke-opacity:1;stroke-miterlimit:10;" d="M 155.8375 75 L 169.371875 42.934375 " transform="matrix(1.25,0,0,1.25,-22.5,-15)"/>
<path style="fill:none;stroke-width:1;stroke-linecap:butt;stroke-linejoin:miter;stroke:rgb(0%,0%,0%);stroke-opacity:1;stroke-miterlimit:10;" d="M 170.925 39.25 L 169.371875 42.934375 M 167.9875 42.35 L 170.925 39.25 L 170.753125 43.51875 " transform="matrix(1.25,0,0,1.25,-22.5,-15)"/>
<path style="fill:none;stroke-width:1;stroke-linecap:round;stroke-linejoin:round;stroke:rgb(0%,0%,0%);stroke-opacity:1;stroke-miterlimit:10;" d="M 160.565625 78.465625 L 208.06875 37.86875 " transform="matrix(1.25,0,0,1.25,-22.5,-15)"/>
<path style="fill:none;stroke-width:1;stroke-linecap:butt;stroke-linejoin:miter;stroke:rgb(0%,0%,0%);stroke-opacity:1;stroke-miterlimit:10;" d="M 211.1125 35.26875 L 208.06875 37.86875 M 207.096875 36.725 L 211.1125 35.26875 L 209.046875 39.00625 " transform="matrix(1.25,0,0,1.25,-22.5,-15)"/>
<path style="fill:none;stroke-width:1;stroke-linecap:round;stroke-linejoin:round;stroke:rgb(0%,0%,0%);stroke-opacity:1;stroke-miterlimit:10;" d="M 193.98125 78.559375 L 145.29375 37.734375 " transform="matrix(1.25,0,0,1.25,-22.5,-15)"/>
<path style="fill:none;stroke-width:1;stroke-linecap:butt;stroke-linejoin:miter;stroke:rgb(0%,0%,0%);stroke-opacity:1;stroke-miterlimit:10;" d="M 142.225 35.1625 L 145.29375 37.734375 M 144.328125 38.88125 L 142.225 35.1625 L 146.253125 36.58125 " transform="matrix(1.25,0,0,1.25,-22.5,-15)"/>
<path style="fill:none;stroke-width:1;stroke-linecap:round;stroke-linejoin:round;stroke:rgb(0%,0%,0%);stroke-opacity:1;stroke-miterlimit:10;" d="M 198.565625 75.096875 L 184.203125 42.79375 " transform="matrix(1.25,0,0,1.25,-22.5,-15)"/>
<path style="fill:none;stroke-width:1;stroke-linecap:butt;stroke-linejoin:miter;stroke:rgb(0%,0%,0%);stroke-opacity:1;stroke-miterlimit:10;" d="M 182.578125 39.140625 L 184.203125 42.79375 M 182.83125 43.403125 L 182.578125 39.140625 L 185.575 42.184375 " transform="matrix(1.25,0,0,1.25,-22.5,-15)"/>
<path style="fill:none;stroke-width:1;stroke-linecap:round;stroke-linejoin:round;stroke:rgb(0%,0%,0%);stroke-opacity:1;stroke-miterlimit:10;" d="M 207.45 74.546875 L 216.8375 43.6 " transform="matrix(1.25,0,0,1.25,-22.5,-15)"/>
<path style="fill:none;stroke-width:1;stroke-linecap:butt;stroke-linejoin:miter;stroke:rgb(0%,0%,0%);stroke-opacity:1;stroke-miterlimit:10;" d="M 217.996875 39.775 L 216.8375 43.6 M 215.403125 43.1625 L 217.996875 39.775 L 218.275 44.034375 " transform="matrix(1.25,0,0,1.25,-22.5,-15)"/>
<path style="fill:none;stroke-width:1;stroke-linecap:round;stroke-linejoin:round;stroke:rgb(0%,0%,0%);stroke-opacity:1;stroke-miterlimit:10;" d="M 245.125 80.484375 L 147.81875 33.815625 " transform="matrix(1.25,0,0,1.25,-22.5,-15)"/>
<path style="fill:none;stroke-width:1;stroke-linecap:butt;stroke-linejoin:miter;stroke:rgb(0%,0%,0%);stroke-opacity:1;stroke-miterlimit:10;" d="M 144.2125 32.0875 L 147.81875 33.815625 M 147.171875 35.16875 L 144.2125 32.0875 L 148.46875 32.465625 " transform="matrix(1.25,0,0,1.25,-22.5,-15)"/>
<path style="fill:none;stroke-width:1;stroke-linecap:round;stroke-linejoin:round;stroke:rgb(0%,0%,0%);stroke-opacity:1;stroke-miterlimit:10;" d="M 246.4375 78.328125 L 191.525 36.971875 " transform="matrix(1.25,0,0,1.25,-22.5,-15)"/>
<path style="fill:none;stroke-width:1;stroke-linecap:butt;stroke-linejoin:miter;stroke:rgb(0%,0%,0%);stroke-opacity:1;stroke-miterlimit:10;" d="M 188.328125 34.5625 L 191.525 36.971875 M 190.621875 38.16875 L 188.328125 34.5625 L 192.425 35.775 " transform="matrix(1.25,0,0,1.25,-22.5,-15)"/>
<path style="fill:none;stroke-width:1;stroke-linecap:round;stroke-linejoin:round;stroke:rgb(0%,0%,0%);stroke-opacity:1;stroke-miterlimit:10;" d="M 250.30625 74.921875 L 231.49375 41.953125 " transform="matrix(1.25,0,0,1.25,-22.5,-15)"/>
<path style="fill:none;stroke-width:1;stroke-linecap:butt;stroke-linejoin:miter;stroke:rgb(0%,0%,0%);stroke-opacity:1;stroke-miterlimit:10;" d="M 229.5125 38.475 L 231.49375 41.953125 M 230.190625 42.69375 L 229.5125 38.475 L 232.796875 41.20625 " transform="matrix(1.25,0,0,1.25,-22.5,-15)"/>
</g>
</svg>
